<?xml version="1.0" encoding="UTF-8"?>
<svg width="122px" height="40px" viewBox="0 0 122 40" version="1.1" xmlns="http://www.w3.org/2000/svg" xmlns:xlink="http://www.w3.org/1999/xlink">
    <!-- Generator: Sketch 52.6 (67491) - http://www.bohemiancoding.com/sketch -->
    <title>by excv copy 2</title>
    <desc>Created with Sketch.</desc>
    <g id="Page-1" stroke="none" stroke-width="1" fill="none" fill-rule="evenodd">
        <g id="TradePlus(главная-стр.)-Copy" transform="translate(-1141.000000, -3908.000000)" fill-rule="nonzero">
            <g id="Подвал-Copy" transform="translate(0.000000, 3851.000000)">
                <g id="by-excv-copy-2" transform="translate(1141.000000, 57.000000)">
                    <path d="M47.3918919,1 L30.6081081,1 C30.2837838,1 30,0.810810811 30,0.594594595 L30,0.405405405 C30,0.189189189 30.2837838,0 30.6081081,0 L47.3918919,0 C47.7162162,0 48,0.189189189 48,0.405405405 L48,0.594594595 C48,0.837837838 47.7162162,1 47.3918919,1 Z" id="Shape" fill="#010101"></path>
                    <path d="M96.7573034,15.4570136 C96.4337079,15.1719457 95.988764,15.1719457 95.6651685,15.4570136 C94.0067416,16.9638009 91.8629213,17.7375566 89.3955056,17.7375566 C84.5820225,17.7375566 80.658427,14.2760181 80.658427,10.040724 C80.658427,5.84615385 84.5820225,2.42533937 89.3955056,2.42533937 C91.8629213,2.42533937 94.0067416,3.19909502 95.6651685,4.70588235 C95.988764,4.99095023 96.4337079,4.99095023 96.7573034,4.70588235 C96.9191011,4.54298643 97,4.3800905 97,4.21719457 C97,4.05429864 96.9191011,3.89140271 96.7573034,3.72850679 C94.8157303,1.97737557 92.1865169,1 89.3550562,1 C83.6516854,1 79,5.03167421 79,10 C79,14.9683258 83.6516854,19 89.3550562,19 C92.1865169,19 94.7752809,18.0226244 96.7573034,16.3529412 C96.9191011,16.1900452 97,16.0271493 97,15.8642534 C97,15.7420814 96.9191011,15.6199095 96.7573034,15.4570136 Z" id="Shape" fill="#010101"></path>
                    <path d="M84.7727273,16.9411765 C84.2272727,16.7058824 83.7272727,16.4313725 83.2727273,16.0784314 L83.1363636,16 L82,16.9803922 L82.1363636,17.0588235 C82.6363636,17.4117647 83.1818182,17.6862745 83.7272727,17.9607843 L83.8636364,18 L85,16.9803922 L84.7727273,16.9411765 Z" id="Shape" fill="#E82022"></path>
                    <path d="M121.669125,1.19323973 L121.38555,1.07155344 C121.101974,0.909305054 120.737377,1.03099134 120.575334,1.35548811 L112.999814,16.8502089 L105.424294,1.35548811 C105.262251,1.07155344 104.897654,0.94986715 104.614078,1.07155344 L104.330503,1.19323973 C104.046927,1.35548811 103.925395,1.72054698 104.046927,2.00448165 L112.189598,18.6755032 C112.230109,18.8377516 112.351641,18.9188758 112.513684,18.9594379 C112.554195,19 112.675728,19 112.716238,19 L113.202368,19 C113.28339,19 113.364411,18.9594379 113.445433,18.9594379 C113.566965,18.9188758 113.688498,18.7971895 113.729008,18.6755032 L121.871679,2.00448165 C122.114744,1.72054698 121.993212,1.35548811 121.669125,1.19323973 Z" id="Shape" fill="#010101"></path>
                    <path d="M41.3617021,10 L30.6382979,10 C30.2978723,10 30,9.81081081 30,9.59459459 L30,9.40540541 C30,9.18918919 30.2978723,9 30.6382979,9 L41.3617021,9 C41.7021277,9 42,9.18918919 42,9.40540541 L42,9.59459459 C42,9.81081081 41.7021277,10 41.3617021,10 Z" id="Shape" fill="#010101"></path>
                    <path d="M47.3918919,18 L30.6081081,18 C30.2837838,18 30,17.8108108 30,17.5945946 L30,17.4054054 C30,17.1891892 30.2837838,17 30.6081081,17 L47.3918919,17 C47.7162162,17 48,17.1891892 48,17.4054054 L48,17.5945946 C48,17.8108108 47.7162162,18 47.3918919,18 Z" id="Shape" fill="#010101"></path>
                    <path d="M67.1908397,9 L74.7938931,1.37593985 C75.0687023,1.10526316 75.0687023,0.654135338 74.7938931,0.428571429 L74.5648855,0.203007519 C74.2900763,-0.0676691729 73.8320611,-0.0676691729 73.6030534,0.203007519 L66,7.82706767 L67.1908397,9 Z" id="Shape" fill="#E82022"></path>
                    <path d="M63.8571429,10 C61,12.9067245 58.0989011,15.7700651 55.1978022,18.6767896 C54.9340659,18.9370933 54.9340659,19.3709328 55.1978022,19.5878525 L55.4175824,19.8047722 C55.6813187,20.0650759 56.1208791,20.0650759 56.3406593,19.8047722 C59.1978022,16.8980477 62.1428571,13.9913232 65,11.0845987 C64.6483516,10.7375271 64.2527473,10.3904555 63.8571429,10 Z" id="Shape" fill="#010101"></path>
                    <path d="M55.1824324,1.23648649 L71.7635135,17.8175676 C72.0067568,18.0608108 72.3716216,18.0608108 72.6148649,17.8175676 L72.8175676,17.6148649 C73.0608108,17.3716216 73.0608108,17.0067568 72.8175676,16.7635135 L56.2364865,0.182432432 C55.9932432,-0.0608108108 55.6283784,-0.0608108108 55.3851351,0.182432432 L55.1824324,0.385135135 C54.9391892,0.628378378 54.9391892,0.993243243 55.1824324,1.23648649 Z" id="Shape" fill="#010101"></path>
                    <g id="Group" fill="#000000">
                        <path d="M5.2627451,17.5416667 C6.34117647,17.2083333 7.24705882,16.4583333 7.63529412,15.5833333 C7.89411765,15 7.89411765,14.375 7.67843137,13.9166667 C7.37647059,13.375 6.72941176,13.2916667 6.25490196,13.2916667 C6.25490196,13.2916667 6.25490196,13.2916667 6.25490196,13.2916667 C5.13333333,13.3333333 3.96862745,13.7916667 2.76078431,14.7083333 C2.63137255,14.7916667 2.54509804,14.875 2.41568627,15 C2.41568627,14.9583333 2.45882353,14.9583333 2.45882353,14.9166667 C2.93333333,14.0833333 3.40784314,13.2083333 3.88235294,12.375 C4.05490196,12.0416667 4.22745098,11.7083333 4.44313725,11.375 C5.90980392,8.83333333 7.33333333,6.58333333 8.8,4.54166667 C9.01568627,4.25 9.2745098,3.91666667 9.49019608,3.625 C9.70588235,3.33333333 9.96470588,3 10.1803922,2.70833333 C10.3529412,2.45833333 10.5686275,2.20833333 10.7843137,1.95833333 C11.0862745,1.58333333 11.3882353,1.20833333 11.6470588,0.791666667 C11.7333333,0.708333333 11.7333333,0.583333333 11.6901961,0.458333333 C11.6470588,0.333333333 11.5176471,0.25 11.3882353,0.208333333 C11.2588235,0.208333333 11.172549,0.25 11.1294118,0.291666667 C10.654902,0.75 10.2666667,1.20833333 9.92156863,1.70833333 L9.74901961,1.91666667 C9.23137255,2.5 8.84313725,3.04166667 8.45490196,3.58333333 C7.59215686,4.70833333 6.81568627,5.875 6.08235294,6.95833333 C5.34901961,8.08333333 4.61568627,9.29166667 3.9254902,10.4583333 C3.58039216,11.0416667 3.23529412,11.6666667 2.93333333,12.2916667 C2.58823529,12.9166667 2.28627451,13.5 1.94117647,14.125 C1.16470588,15.5416667 0.560784314,16.8333333 0.129411765,18.0416667 C0.0862745098,18.25 0.215686275,18.5 0.431372549,18.5833333 C0.474509804,18.5833333 0.560784314,18.625 0.603921569,18.625 C0.776470588,18.625 0.905882353,18.5416667 0.992156863,18.375 C1.20784314,17.9583333 1.50980392,17.5 1.85490196,17.0416667 C1.85490196,17.2083333 1.94117647,17.3333333 2.07058824,17.4166667 C3.0627451,18.125 4.61568627,17.75 5.2627451,17.5416667 Z M5.30588235,14.3333333 C5.78039216,14.2083333 6.25490196,14.0833333 6.68627451,14.2083333 C6.77254902,14.25 6.81568627,14.2916667 6.85882353,14.375 C6.94509804,14.5833333 6.90196078,14.875 6.77254902,15.125 C6.55686275,15.7083333 5.95294118,16.25 5.09019608,16.5833333 C4.14117647,16.9166667 3.0627451,16.875 2.11372549,16.7916667 C2.11372549,16.7916667 2.07058824,16.7916667 2.07058824,16.7916667 C2.02745098,16.7916667 1.98431373,16.7916667 1.94117647,16.7916667 C2.76078431,15.75 3.88235294,14.7916667 5.30588235,14.3333333 Z" id="Shape"></path>
                        <path d="M21.6980392,15.7083333 C21.6117647,15.5416667 21.3960784,15.4583333 21.2235294,15.5416667 C21.0078431,15.625 20.8352941,15.7083333 20.6196078,15.8333333 C19.9294118,16.125 19.2392157,16.4583333 18.5490196,16.875 C17.6,17.4583333 16.7803922,18.0416667 16.0039216,18.5833333 C15.0980392,19.25 14.3215686,19.875 13.6313725,20.5 C14.3647059,18.2083333 15.1411765,16.375 16.0039216,14.7916667 C16.2196078,14.375 16.4784314,13.9583333 16.7372549,13.5416667 C16.8666667,13.3333333 16.7803922,13.0833333 16.5647059,12.9166667 C16.3490196,12.7916667 16.0901961,12.8333333 15.9176471,13.0416667 C14.6235294,15 13.0705882,16.625 11.2588235,17.8333333 C10.9137255,18.0833333 10.4823529,18.375 10.0509804,18.5416667 C9.6627451,18.625 9.31764706,18.6666667 9.18823529,18.4583333 C9.10196078,18.2916667 9.14509804,18.0416667 9.23137255,17.8333333 C9.31764706,17.5833333 9.44705882,17.3333333 9.57647059,17.0416667 C9.79215686,16.625 10.0509804,16.1666667 10.3960784,15.7083333 C10.7843137,15.1666667 11.2156863,14.625 11.6470588,14.125 C11.8627451,13.875 12.0784314,13.6666667 12.2941176,13.5 C12.4235294,13.375 12.5529412,13.25 12.6823529,13.125 C12.8117647,13 12.9411765,12.875 13.0705882,12.7916667 L13.2,12.6666667 L13.1568627,12.5416667 C13.1137255,12.4583333 13.027451,12.375 12.8980392,12.375 L12.8117647,12.375 C12.5098039,12.5 12.2078431,12.625 11.9490196,12.8333333 C11.6470588,13.0416667 11.3882353,13.25 11.172549,13.5 C10.6980392,14 10.2666667,14.5 9.92156863,15 C9.57647059,15.4583333 9.18823529,16 8.88627451,16.5833333 L8.8,16.7083333 C8.54117647,17.2083333 8.19607843,17.875 8.3254902,18.4583333 C8.41176471,18.8333333 8.58431373,19.125 8.92941176,19.25 C9.53333333,19.5416667 10.3960784,19.3333333 10.9568627,19.0416667 C11.5176471,18.7916667 11.9921569,18.4166667 12.5098039,18.0833333 C13.0705882,17.6666667 13.5019608,17.25 13.9333333,16.875 C13.2,18.5833333 12.6392157,20.3333333 12.2078431,21.75 C11.9058824,22.0416667 11.6039216,22.3333333 11.345098,22.625 C8.41176471,25.6666667 5.95294118,28.9583333 4.09803922,32.4583333 C3.5372549,33.5416667 3.0627451,34.5416667 2.76078431,35.5416667 L2.71764706,35.7083333 C2.45882353,36.5833333 2.15686275,37.5416667 2.28627451,38.5 C2.32941176,38.8333333 2.45882353,39.3333333 2.89019608,39.625 C3.14901961,39.8333333 3.49411765,39.9583333 3.88235294,39.9583333 C4.01176471,39.9583333 4.09803922,39.9583333 4.22745098,39.9166667 C5.34901961,39.75 6.1254902,38.8333333 6.6,38.1666667 C7.76470588,36.7083333 8.54117647,34.9583333 9.2745098,33.25 C9.40392157,33 9.49019608,32.75 9.61960784,32.5 C10.4392157,30.5833333 11.1294118,28.5416667 11.8196078,26.3333333 C12.0352941,25.625 12.2509804,24.875 12.4666667,24.1666667 C12.6823529,23.4583333 12.8980392,22.7916667 13.0705882,22.0833333 C15.3137255,19.9583333 17.7294118,18.1666667 20.2745098,16.7083333 C20.4039216,16.6666667 20.4901961,16.5833333 20.6196078,16.5 C20.8784314,16.3333333 21.1803922,16.1666667 21.4823529,16.0416667 C21.7411765,16.0416667 21.7843137,15.875 21.6980392,15.7083333 Z M11.6039216,24.125 L11.345098,25.0416667 C10.8705882,26.625 10.3529412,28.2916667 9.74901961,29.875 C9.44705882,30.7916667 9.05882353,31.75 8.49803922,32.9166667 C8.3254902,33.25 8.19607843,33.5833333 8.02352941,33.9583333 C7.76470588,34.5416667 7.50588235,35.125 7.20392157,35.7083333 C6.77254902,36.5 6.21176471,37.4166667 5.52156863,38.2083333 C5.21960784,38.5416667 4.91764706,38.8333333 4.48627451,39 C4.18431373,39.125 3.75294118,39.2083333 3.45098039,39.0416667 C3.19215686,38.8333333 3.19215686,38.5416667 3.19215686,38.2083333 C3.19215686,37.75 3.27843137,37.3333333 3.36470588,36.875 C3.62352941,35.7083333 4.09803922,34.625 4.44313725,33.8333333 C5.99607843,30.5833333 8.23921569,27.3333333 11.1294118,24.2083333 L11.4313725,23.9166667 C11.5176471,23.7916667 11.6470588,23.7083333 11.7333333,23.5833333 C11.7333333,23.7083333 11.6901961,23.9166667 11.6039216,24.125 L11.8196078,24.1666667 L11.6039216,24.125 Z" id="Shape"></path>
                    </g>
                </g>
            </g>
        </g>
    </g>
</svg>