<?xml version="1.0" encoding="UTF-8"?>
<svg width="179px" height="68px" viewBox="0 0 179 68" version="1.1" xmlns="http://www.w3.org/2000/svg" xmlns:xlink="http://www.w3.org/1999/xlink">
    <!-- Generator: Sketch 52.6 (67491) - http://www.bohemiancoding.com/sketch -->
    <title>Group 2</title>
    <desc>Created with Sketch.</desc>
    <g id="Page-1" stroke="none" stroke-width="1" fill="none" fill-rule="evenodd">
        <g id="TradePlus(стр.контакты)" transform="translate(-717.000000, -419.000000)">
            <g id="Group-2" transform="translate(717.000000, 419.000000)">
                <path d="M1.99999995,0.000463702062 L176.517033,0.0413894131 C177.621422,0.0416454667 178.51657,0.937000942 178.51657,2.04138936 L178.517819,56 C178.517819,57.1045695 177.622388,58 176.517819,58 C176.517557,58 176.517295,57.9999999 176.517033,57.9999998 L73.1133851,57.9586106 L62.451753,68 L51.7248704,57.9586106 L2,57.9586106 C0.8954305,57.9586106 -2.13600807e-13,57.0631801 -2.14717133e-13,55.9586106 L-0.000463648319,2 C-0.000463648319,0.8954305 0.894966852,-6.90252123e-15 1.99953635,-7.10542736e-15 C1.99969092,-7.10545575e-15 1.99984549,1.79182937e-08 2.00000005,5.37548941e-08 Z" id="Rectangle" fill="#282D57"></path>
                <text id="ООО-&quot;ТрэйдПлюс&quot;" font-family="Helvetica-Bold, Helvetica" font-size="14" font-weight="bold" letter-spacing="0.583333333" fill="#FFFFFF">
                    <tspan x="21" y="34">ООО "ТрэйдПлюс"</tspan>
                </text>
            </g>
        </g>
    </g>
</svg>