<svg width="122" height="40" viewBox="0 0 122 40" xmlns="http://www.w3.org/2000/svg">
    <title>
        by excv copy 2
    </title>
    <g fill-rule="nonzero" fill="none">
        <path d="M47.392 1H30.608C30.284 1 30 .81 30 .595v-.19c0-.216.284-.405.608-.405h16.784c.324 0 .608.19.608.405v.19c0 .243-.284.405-.608.405z" fill="#010101"/>
        <path d="M96.757 15.457a.804.804 0 0 0-1.092 0c-1.658 1.507-3.802 2.28-6.27 2.28-4.813 0-8.737-3.461-8.737-7.696 0-4.195 3.924-7.616 8.738-7.616 2.467 0 4.61.774 6.27 2.28a.804.804 0 0 0 1.091 0c.162-.162.243-.325.243-.488 0-.163-.08-.326-.243-.488C94.816 1.977 92.187 1 89.355 1 83.652 1 79 5.032 79 10s4.652 9 10.355 9c2.832 0 5.42-.977 7.402-2.647.162-.163.243-.326.243-.489 0-.122-.08-.244-.243-.407z" fill="#010101"/>
        <path d="M84.773 16.941a6.803 6.803 0 0 1-1.5-.863L83.136 16 82 16.98l.136.079c.5.353 1.046.627 1.591.902l.137.039L85 16.98l-.227-.039z" fill="#E82022"/>
        <path d="M121.67 1.193l-.284-.121c-.284-.163-.649-.041-.81.283L113 16.85l-7.576-15.495c-.162-.283-.526-.405-.81-.283l-.283.121a.662.662 0 0 0-.284.811l8.143 16.672c.04.162.162.243.324.283.04.041.162.041.202.041h.486c.081 0 .162-.04.243-.04a.49.49 0 0 0 .284-.284l8.143-16.672c.243-.283.121-.649-.203-.81z" fill="#010101"/>
        <path d="M41.362 10H30.638c-.34 0-.638-.19-.638-.405v-.19c0-.216.298-.405.638-.405h10.724c.34 0 .638.19.638.405v.19c0 .216-.298.405-.638.405z" fill="#010101"/>
        <path d="M47.392 18H30.608c-.324 0-.608-.19-.608-.405v-.19c0-.216.284-.405.608-.405h16.784c.324 0 .608.19.608.405v.19c0 .216-.284.405-.608.405z" fill="#010101"/>
        <path d="M67.19 9l7.604-7.624c.275-.27.275-.722 0-.947l-.23-.226c-.274-.27-.732-.27-.96 0L66 7.827 67.19 9z" fill="#E82022"/>
        <path d="M63.857 10c-2.857 2.907-5.758 5.77-8.66 8.677-.263.26-.263.694 0 .91l.22.218c.264.26.704.26.924 0 2.857-2.907 5.802-5.814 8.659-8.72-.352-.347-.747-.695-1.143-1.085z" fill="#010101"/>
        <path d="M55.182 1.236l16.582 16.582a.588.588 0 0 0 .85 0l.204-.203a.588.588 0 0 0 0-.851L56.236.182a.588.588 0 0 0-.85 0l-.204.203a.588.588 0 0 0 0 .851z" fill="#010101"/>
        <g fill="#000">
            <path d="M5.263 17.542c1.078-.334 1.984-1.084 2.372-1.959.26-.583.26-1.208.043-1.666-.302-.542-.949-.625-1.423-.625-1.122.041-2.286.5-3.494 1.416a2.14 2.14 0 0 0-.345.292c0-.042.043-.042.043-.083.474-.834.949-1.709 1.423-2.542.173-.333.345-.667.561-1C5.91 8.833 7.333 6.583 8.8 4.542c.216-.292.475-.625.69-.917.216-.292.475-.625.69-.917.173-.25.389-.5.604-.75.302-.375.604-.75.863-1.166.086-.084.086-.209.043-.334-.043-.125-.172-.208-.302-.25-.13 0-.215.042-.259.084a9.224 9.224 0 0 0-1.207 1.416l-.173.209c-.518.583-.906 1.125-1.294 1.666-.863 1.125-1.64 2.292-2.373 3.375a96.181 96.181 0 0 0-2.157 3.5c-.345.584-.69 1.209-.992 1.834-.345.625-.647 1.208-.992 1.833-.776 1.417-1.38 2.708-1.812 3.917a.5.5 0 0 0 .302.541c.044 0 .13.042.173.042.172 0 .302-.083.388-.25.216-.417.518-.875.863-1.333 0 .166.086.291.216.375.992.708 2.545.333 3.192.125zm.043-3.209c.474-.125.949-.25 1.38-.125.087.042.13.084.173.167.086.208.043.5-.086.75-.216.583-.82 1.125-1.683 1.458-.949.334-2.027.292-2.976.209H1.94c.82-1.042 1.941-2 3.365-2.459z"/>
            <path d="M21.698 15.708a.368.368 0 0 0-.474-.166 4.001 4.001 0 0 0-.604.291c-.69.292-1.38.625-2.071 1.042-.949.583-1.769 1.167-2.545 1.708A30.02 30.02 0 0 0 13.63 20.5c.734-2.292 1.51-4.125 2.373-5.708.216-.417.474-.834.733-1.25.13-.209.043-.459-.172-.625a.494.494 0 0 0-.647.125c-1.294 1.958-2.847 3.583-4.66 4.791-.344.25-.776.542-1.207.709-.388.083-.733.125-.863-.084-.086-.166-.043-.416.043-.625.087-.25.216-.5.345-.791.216-.417.475-.875.82-1.334.388-.541.82-1.083 1.251-1.583.216-.25.431-.458.647-.625l.388-.375c.13-.125.26-.25.389-.333l.129-.125-.043-.125a.291.291 0 0 0-.259-.167h-.086c-.302.125-.604.25-.863.458-.302.209-.56.417-.776.667-.475.5-.906 1-1.251 1.5-.346.458-.734 1-1.036 1.583l-.086.125c-.259.5-.604 1.167-.475 1.75.087.375.26.667.604.792.604.292 1.467.083 2.028-.208.56-.25 1.035-.625 1.553-.959.56-.416.992-.833 1.423-1.208-.733 1.708-1.294 3.458-1.725 4.875-.302.292-.604.583-.863.875-2.933 3.042-5.392 6.333-7.247 9.833-.56 1.084-1.035 2.084-1.337 3.084l-.043.166c-.26.875-.561 1.834-.432 2.792.043.333.173.833.604 1.125.259.208.604.333.992.333.13 0 .216 0 .345-.041 1.122-.167 1.898-1.084 2.373-1.75 1.165-1.459 1.941-3.209 2.675-4.917.129-.25.215-.5.345-.75.82-1.917 1.51-3.958 2.2-6.167.215-.708.431-1.458.647-2.166.215-.709.431-1.375.604-2.084a37.796 37.796 0 0 1 7.204-5.375c.129-.041.215-.125.345-.208.258-.167.56-.333.862-.458.26 0 .302-.167.216-.334zm-10.094 8.417l-.259.917c-.474 1.583-.992 3.25-1.596 4.833-.302.917-.69 1.875-1.251 3.042-.173.333-.302.666-.474 1.041a31.87 31.87 0 0 1-.82 1.75c-.431.792-.992 1.709-1.682 2.5-.302.334-.604.625-1.036.792-.302.125-.733.208-1.035.042-.259-.209-.259-.5-.259-.834 0-.458.086-.875.173-1.333.259-1.167.733-2.25 1.078-3.042 1.553-3.25 3.796-6.5 6.686-9.625l.302-.291c.087-.125.216-.209.302-.334 0 .125-.043.334-.13.542l.217.042-.216-.042z"/>
        </g>
    </g>
</svg>
