<?xml version="1.0" encoding="UTF-8"?><!DOCTYPE svg PUBLIC "-//W3C//DTD SVG 1.1//EN" "http://www.w3.org/Graphics/SVG/1.1/DTD/svg11.dtd"><svg xmlns="http://www.w3.org/2000/svg"><symbol id="icon-arrow" viewBox="0 0 13 23">
    <title>
        Shape
    </title>
    <path d="M2.425 11.5l9.402-9.484a.596.596 0 0 0 0-.841.584.584 0 0 0-.834 0l-9.82 9.906a.596.596 0 0 0 0 .84l9.82 9.903a.572.572 0 0 0 .829 0 .596.596 0 0 0 0-.84l-9.397-9.485z" fill-rule="nonzero"/>
</symbol><symbol id="icon-burger" viewBox="0 0 512 512">
    <path d="M491.318 235.318H20.682C9.26 235.318 0 244.577 0 256s9.26 20.682 20.682 20.682h470.636c11.423 0 20.682-9.259 20.682-20.682 0-11.422-9.259-20.682-20.682-20.682z"/>
    <path d="M491.318 78.439H20.682C9.26 78.439 0 87.699 0 99.121c0 11.422 9.26 20.682 20.682 20.682h470.636c11.423 0 20.682-9.26 20.682-20.682 0-11.422-9.259-20.682-20.682-20.682z"/>
    <path d="M491.318 392.197H20.682C9.26 392.197 0 401.456 0 412.879s9.26 20.682 20.682 20.682h470.636c11.423 0 20.682-9.259 20.682-20.682s-9.259-20.682-20.682-20.682z"/>
</symbol></svg>